# xmcd
#
# Track frame offsets:
#	150
#	12739
#	24544
#	35886
#	49422
#	60378
#	71141
#	83841
#	96218
#	107522
#	119427
#	131692
#	145826
#	157092
#
# Disc length: 2275 seconds
#
# Revision: 0
# Processed by: cddbd v1.5.2PL0 Copyright (c) Steve Scherf et al.
# Submitted via: dBpowerAMP V4.0
#
DISCID=cc08e10e
DTITLE=Various Artist - Country - Johnny Cash CD1
DYEAR=1900
DGENRE=Country
TTITLE0=Johnny Cash - Folsom prison blues
TTITLE1=Patsy Cline - Walkin after midnight
TTITLE2=Carl Smith - Hey Joe
TTITLE3=Willie Nelson - The last letter
TTITLE4=Don Gibson - Oh lonesome me
TTITLE5=Ferlin Husky - Wings of a dove
TTITLE6=Hank Snow - I"m movin on
TTITLE7=Johnny Paycheck - Take this job and shove it
TTITLE8=Kitty Wells - It wasn't god who made honky tonk angels
TTITLE9=Jim Reeves - Mexxican Joe
TTITLE10=Porter Wagoner - Green green grass of home
TTITLE11=Tex Ritter - Conversation with a gun
TTITLE12=Sandy Posey - I will follow him
TTITLE13=Ernest Tubb and Red Foley - Goodnight Irene
EXTD=
EXTT0=
EXTT1=
EXTT2=
EXTT3=
EXTT4=
EXTT5=
EXTT6=
EXTT7=
EXTT8=
EXTT9=
EXTT10=
EXTT11=
EXTT12=
EXTT13=
PLAYORDER=
